%TF.GenerationSoftware,KiCad,Pcbnew,9.0.6*%
%TF.CreationDate,2025-12-09T22:28:09-06:00*%
%TF.ProjectId,QCW_Precharge,5143575f-5072-4656-9368-617267652e6b,rev?*%
%TF.SameCoordinates,Original*%
%TF.FileFunction,Soldermask,Top*%
%TF.FilePolarity,Negative*%
%FSLAX46Y46*%
G04 Gerber Fmt 4.6, Leading zero omitted, Abs format (unit mm)*
G04 Created by KiCad (PCBNEW 9.0.6) date 2025-12-09 22:28:09*
%MOMM*%
%LPD*%
G01*
G04 APERTURE LIST*
G04 Aperture macros list*
%AMRoundRect*
0 Rectangle with rounded corners*
0 $1 Rounding radius*
0 $2 $3 $4 $5 $6 $7 $8 $9 X,Y pos of 4 corners*
0 Add a 4 corners polygon primitive as box body*
4,1,4,$2,$3,$4,$5,$6,$7,$8,$9,$2,$3,0*
0 Add four circle primitives for the rounded corners*
1,1,$1+$1,$2,$3*
1,1,$1+$1,$4,$5*
1,1,$1+$1,$6,$7*
1,1,$1+$1,$8,$9*
0 Add four rect primitives between the rounded corners*
20,1,$1+$1,$2,$3,$4,$5,0*
20,1,$1+$1,$4,$5,$6,$7,0*
20,1,$1+$1,$6,$7,$8,$9,0*
20,1,$1+$1,$8,$9,$2,$3,0*%
G04 Aperture macros list end*
%ADD10RoundRect,0.250000X0.312500X0.625000X-0.312500X0.625000X-0.312500X-0.625000X0.312500X-0.625000X0*%
%ADD11RoundRect,0.250000X-0.625000X0.312500X-0.625000X-0.312500X0.625000X-0.312500X0.625000X0.312500X0*%
%ADD12RoundRect,0.102000X-0.800000X-0.500000X0.800000X-0.500000X0.800000X0.500000X-0.800000X0.500000X0*%
%ADD13RoundRect,0.225000X-0.225000X-0.250000X0.225000X-0.250000X0.225000X0.250000X-0.225000X0.250000X0*%
%ADD14RoundRect,0.250000X0.650000X-1.000000X0.650000X1.000000X-0.650000X1.000000X-0.650000X-1.000000X0*%
%ADD15RoundRect,0.250000X-0.750000X0.750000X-0.750000X-0.750000X0.750000X-0.750000X0.750000X0.750000X0*%
%ADD16C,2.000000*%
%ADD17RoundRect,0.150000X-0.825000X-0.150000X0.825000X-0.150000X0.825000X0.150000X-0.825000X0.150000X0*%
%ADD18RoundRect,0.225000X0.250000X-0.225000X0.250000X0.225000X-0.250000X0.225000X-0.250000X-0.225000X0*%
%ADD19RoundRect,0.200000X0.275000X-0.200000X0.275000X0.200000X-0.275000X0.200000X-0.275000X-0.200000X0*%
%ADD20RoundRect,0.250000X1.050000X1.050000X-1.050000X1.050000X-1.050000X-1.050000X1.050000X-1.050000X0*%
%ADD21C,2.600000*%
%ADD22RoundRect,0.250000X-1.050000X1.050000X-1.050000X-1.050000X1.050000X-1.050000X1.050000X1.050000X0*%
%ADD23RoundRect,0.200000X0.200000X0.275000X-0.200000X0.275000X-0.200000X-0.275000X0.200000X-0.275000X0*%
%ADD24RoundRect,0.250000X-0.362500X-1.075000X0.362500X-1.075000X0.362500X1.075000X-0.362500X1.075000X0*%
%ADD25RoundRect,0.250000X1.000000X0.900000X-1.000000X0.900000X-1.000000X-0.900000X1.000000X-0.900000X0*%
%ADD26RoundRect,0.250000X0.750000X-0.750000X0.750000X0.750000X-0.750000X0.750000X-0.750000X-0.750000X0*%
%ADD27RoundRect,0.200000X-0.275000X0.200000X-0.275000X-0.200000X0.275000X-0.200000X0.275000X0.200000X0*%
%ADD28RoundRect,0.225000X0.225000X0.375000X-0.225000X0.375000X-0.225000X-0.375000X0.225000X-0.375000X0*%
%ADD29RoundRect,0.250000X1.050000X-1.050000X1.050000X1.050000X-1.050000X1.050000X-1.050000X-1.050000X0*%
%ADD30RoundRect,0.150000X-0.587500X-0.150000X0.587500X-0.150000X0.587500X0.150000X-0.587500X0.150000X0*%
%ADD31RoundRect,0.250000X-0.550000X-0.550000X0.550000X-0.550000X0.550000X0.550000X-0.550000X0.550000X0*%
%ADD32C,1.600000*%
%ADD33RoundRect,0.225000X0.375000X-0.225000X0.375000X0.225000X-0.375000X0.225000X-0.375000X-0.225000X0*%
%ADD34RoundRect,0.250000X1.075000X-0.362500X1.075000X0.362500X-1.075000X0.362500X-1.075000X-0.362500X0*%
%ADD35RoundRect,0.225000X-0.375000X0.225000X-0.375000X-0.225000X0.375000X-0.225000X0.375000X0.225000X0*%
G04 APERTURE END LIST*
D10*
%TO.C,R2*%
X218462500Y-90000000D03*
X215537500Y-90000000D03*
%TD*%
D11*
%TO.C,R1*%
X222250000Y-89537500D03*
X222250000Y-92462500D03*
%TD*%
D12*
%TO.C,T2*%
X211750000Y-112960000D03*
X211750000Y-115500000D03*
X211750000Y-118040000D03*
X223250000Y-118040000D03*
X223250000Y-115500000D03*
X223250000Y-112960000D03*
%TD*%
D13*
%TO.C,C4*%
X189225000Y-92800000D03*
X190775000Y-92800000D03*
%TD*%
D14*
%TO.C,D8*%
X207000000Y-113500000D03*
X207000000Y-109500000D03*
%TD*%
D15*
%TO.C,C7*%
X199500000Y-90632323D03*
D16*
X199500000Y-95632323D03*
%TD*%
D17*
%TO.C,U3*%
X201525000Y-81595000D03*
X201525000Y-82865000D03*
X201525000Y-84135000D03*
X201525000Y-85405000D03*
X206475000Y-85405000D03*
X206475000Y-84135000D03*
X206475000Y-82865000D03*
X206475000Y-81595000D03*
%TD*%
D18*
%TO.C,C2*%
X209000000Y-83000000D03*
X209000000Y-81450000D03*
%TD*%
D19*
%TO.C,R10*%
X204562500Y-101375000D03*
X204562500Y-99725000D03*
%TD*%
D18*
%TO.C,C9*%
X210500000Y-106775000D03*
X210500000Y-105225000D03*
%TD*%
D15*
%TO.C,C10*%
X199500000Y-107632323D03*
D16*
X199500000Y-112632323D03*
%TD*%
D20*
%TO.C,J1*%
X223045000Y-80577500D03*
D21*
X217965000Y-80577500D03*
%TD*%
D22*
%TO.C,J2*%
X173000000Y-86455000D03*
D21*
X173000000Y-91535000D03*
%TD*%
D19*
%TO.C,R12*%
X204500000Y-118325000D03*
X204500000Y-116675000D03*
%TD*%
D23*
%TO.C,R15*%
X187825000Y-105650000D03*
X186175000Y-105650000D03*
%TD*%
D24*
%TO.C,R7*%
X193187500Y-100500000D03*
X197812500Y-100500000D03*
%TD*%
D25*
%TO.C,D3*%
X192400000Y-89500000D03*
X188100000Y-89500000D03*
%TD*%
D26*
%TO.C,C5*%
X187500000Y-83617677D03*
D16*
X187500000Y-78617677D03*
%TD*%
D27*
%TO.C,R3*%
X198975000Y-79675000D03*
X198975000Y-81325000D03*
%TD*%
D28*
%TO.C,D9*%
X228650000Y-114000000D03*
X225350000Y-114000000D03*
%TD*%
D22*
%TO.C,J4*%
X173000000Y-104420000D03*
D21*
X173000000Y-109500000D03*
%TD*%
D28*
%TO.C,D4*%
X228650000Y-97000000D03*
X225350000Y-97000000D03*
%TD*%
D18*
%TO.C,C1*%
X209200000Y-79775000D03*
X209200000Y-78225000D03*
%TD*%
D12*
%TO.C,T1*%
X211750000Y-95960000D03*
X211750000Y-98500000D03*
X211750000Y-101040000D03*
X223250000Y-101040000D03*
X223250000Y-98500000D03*
X223250000Y-95960000D03*
%TD*%
D29*
%TO.C,J3*%
X235172500Y-92045000D03*
D21*
X235172500Y-86965000D03*
%TD*%
D13*
%TO.C,C8*%
X186225000Y-107500000D03*
X187775000Y-107500000D03*
%TD*%
D18*
%TO.C,C6*%
X210500000Y-89775000D03*
X210500000Y-88225000D03*
%TD*%
D30*
%TO.C,Q1*%
X207062500Y-99550000D03*
X207062500Y-101450000D03*
X208937500Y-100500000D03*
%TD*%
D24*
%TO.C,R11*%
X193187500Y-117500000D03*
X197812500Y-117500000D03*
%TD*%
D27*
%TO.C,R8*%
X200562500Y-99725000D03*
X200562500Y-101375000D03*
%TD*%
D14*
%TO.C,D6*%
X207000000Y-96500000D03*
X207000000Y-92500000D03*
%TD*%
D28*
%TO.C,D5*%
X213150000Y-92000000D03*
X209850000Y-92000000D03*
%TD*%
D31*
%TO.C,U2*%
X183195000Y-95190000D03*
D32*
X183195000Y-97730000D03*
X183195000Y-100270000D03*
X183195000Y-102810000D03*
X190815000Y-102810000D03*
X190815000Y-100270000D03*
X190815000Y-97730000D03*
X190815000Y-95190000D03*
%TD*%
D28*
%TO.C,D7*%
X213150000Y-109000000D03*
X209850000Y-109000000D03*
%TD*%
D33*
%TO.C,D1*%
X201500000Y-79900000D03*
X201500000Y-76600000D03*
%TD*%
D18*
%TO.C,C3*%
X198975000Y-85075000D03*
X198975000Y-83525000D03*
%TD*%
D27*
%TO.C,R13*%
X200500000Y-116675000D03*
X200500000Y-118325000D03*
%TD*%
D29*
%TO.C,J5*%
X235172500Y-109045000D03*
D21*
X235172500Y-103965000D03*
%TD*%
D30*
%TO.C,Q2*%
X207062500Y-116550000D03*
X207062500Y-118450000D03*
X208937500Y-117500000D03*
%TD*%
D27*
%TO.C,R5*%
X195250000Y-83425000D03*
X195250000Y-85075000D03*
%TD*%
D19*
%TO.C,R4*%
X208975000Y-86225000D03*
X208975000Y-84575000D03*
%TD*%
D34*
%TO.C,R14*%
X227000000Y-111312500D03*
X227000000Y-106687500D03*
%TD*%
D35*
%TO.C,D2*%
X204500000Y-76600000D03*
X204500000Y-79900000D03*
%TD*%
D34*
%TO.C,R9*%
X227000000Y-94312500D03*
X227000000Y-89687500D03*
%TD*%
D19*
%TO.C,R6*%
X196975000Y-85125000D03*
X196975000Y-83475000D03*
%TD*%
M02*
