M48
; DRILL file {KiCad 9.0.6} date 2025-12-09T22:28:09-0600
; FORMAT={-:-/ absolute / inch / decimal}
; #@! TF.CreationDate,2025-12-09T22:28:09-06:00
; #@! TF.GenerationSoftware,Kicad,Pcbnew,9.0.6
; #@! TF.FileFunction,Plated,1,2,PTH
FMAT,2
INCH
; #@! TA.AperFunction,Plated,PTH,ViaDrill
T1C0.0118
; #@! TA.AperFunction,Plated,PTH,ComponentDrill
T2C0.0315
; #@! TA.AperFunction,Plated,PTH,ComponentDrill
T3C0.0394
; #@! TA.AperFunction,Plated,PTH,ComponentDrill
T4C0.0512
%
G90
G05
T1
X7.3228Y-3.5197
X7.3937Y-3.6535
X7.4213Y-4.2717
X7.7638Y-3.252
X7.8425Y-3.252
X7.8425Y-4.6299
X7.8445Y-3.9567
X7.8543Y-3.4154
X7.9213Y-3.4094
X7.9724Y-4.6457
X7.9823Y-4.0256
X8.063Y-3.2756
X8.1024Y-4.685
X8.1201Y-4.0453
X8.1417Y-3.4094
X8.2283Y-3.4843
X8.2283Y-4.1535
X8.2756Y-3.2677
T2
X7.2124Y-3.7476
X7.2124Y-3.8476
X7.2124Y-3.9476
X7.2124Y-4.0476
X7.5124Y-3.7476
X7.5124Y-3.8476
X7.5124Y-3.9476
X7.5124Y-4.0476
T3
X7.3819Y-3.0952
X7.3819Y-3.292
X7.8543Y-3.5682
X7.8543Y-3.7651
X7.8543Y-4.2375
X7.8543Y-4.4343
T4
X6.811Y-3.4037
X6.811Y-3.6037
X6.811Y-4.111
X6.811Y-4.311
X8.5813Y-3.1723
X8.7813Y-3.1723
X9.2588Y-3.4238
X9.2588Y-3.6238
X9.2588Y-4.0931
X9.2588Y-4.2931
M30
