%TF.GenerationSoftware,KiCad,Pcbnew,9.0.6*%
%TF.CreationDate,2025-12-09T22:28:09-06:00*%
%TF.ProjectId,QCW_Precharge,5143575f-5072-4656-9368-617267652e6b,rev?*%
%TF.SameCoordinates,Original*%
%TF.FileFunction,Copper,L2,Bot*%
%TF.FilePolarity,Positive*%
%FSLAX46Y46*%
G04 Gerber Fmt 4.6, Leading zero omitted, Abs format (unit mm)*
G04 Created by KiCad (PCBNEW 9.0.6) date 2025-12-09 22:28:09*
%MOMM*%
%LPD*%
G01*
G04 APERTURE LIST*
G04 Aperture macros list*
%AMRoundRect*
0 Rectangle with rounded corners*
0 $1 Rounding radius*
0 $2 $3 $4 $5 $6 $7 $8 $9 X,Y pos of 4 corners*
0 Add a 4 corners polygon primitive as box body*
4,1,4,$2,$3,$4,$5,$6,$7,$8,$9,$2,$3,0*
0 Add four circle primitives for the rounded corners*
1,1,$1+$1,$2,$3*
1,1,$1+$1,$4,$5*
1,1,$1+$1,$6,$7*
1,1,$1+$1,$8,$9*
0 Add four rect primitives between the rounded corners*
20,1,$1+$1,$2,$3,$4,$5,0*
20,1,$1+$1,$4,$5,$6,$7,0*
20,1,$1+$1,$6,$7,$8,$9,0*
20,1,$1+$1,$8,$9,$2,$3,0*%
G04 Aperture macros list end*
%TA.AperFunction,ComponentPad*%
%ADD10RoundRect,0.250000X-0.750000X0.750000X-0.750000X-0.750000X0.750000X-0.750000X0.750000X0.750000X0*%
%TD*%
%TA.AperFunction,ComponentPad*%
%ADD11C,2.000000*%
%TD*%
%TA.AperFunction,ComponentPad*%
%ADD12RoundRect,0.250000X1.050000X1.050000X-1.050000X1.050000X-1.050000X-1.050000X1.050000X-1.050000X0*%
%TD*%
%TA.AperFunction,ComponentPad*%
%ADD13C,2.600000*%
%TD*%
%TA.AperFunction,ComponentPad*%
%ADD14RoundRect,0.250000X-1.050000X1.050000X-1.050000X-1.050000X1.050000X-1.050000X1.050000X1.050000X0*%
%TD*%
%TA.AperFunction,ComponentPad*%
%ADD15RoundRect,0.250000X0.750000X-0.750000X0.750000X0.750000X-0.750000X0.750000X-0.750000X-0.750000X0*%
%TD*%
%TA.AperFunction,ComponentPad*%
%ADD16RoundRect,0.250000X1.050000X-1.050000X1.050000X1.050000X-1.050000X1.050000X-1.050000X-1.050000X0*%
%TD*%
%TA.AperFunction,ComponentPad*%
%ADD17RoundRect,0.250000X-0.550000X-0.550000X0.550000X-0.550000X0.550000X0.550000X-0.550000X0.550000X0*%
%TD*%
%TA.AperFunction,ComponentPad*%
%ADD18C,1.600000*%
%TD*%
%TA.AperFunction,ViaPad*%
%ADD19C,0.600000*%
%TD*%
%TA.AperFunction,Conductor*%
%ADD20C,0.254000*%
%TD*%
G04 APERTURE END LIST*
D10*
%TO.P,C7,1*%
%TO.N,Net-(D5-K)*%
X199500000Y-90632323D03*
D11*
%TO.P,C7,2*%
%TO.N,GND*%
X199500000Y-95632323D03*
%TD*%
D10*
%TO.P,C10,1*%
%TO.N,Net-(D7-K)*%
X199500000Y-107632323D03*
D11*
%TO.P,C10,2*%
%TO.N,GND*%
X199500000Y-112632323D03*
%TD*%
D12*
%TO.P,J1,1,Pin_1*%
%TO.N,Net-(J1-Pin_1)*%
X223045000Y-80577500D03*
D13*
%TO.P,J1,2,Pin_2*%
%TO.N,Net-(J1-Pin_2)*%
X217965000Y-80577500D03*
%TD*%
D14*
%TO.P,J2,1,Pin_1*%
%TO.N,+5V*%
X173000000Y-86455000D03*
D13*
%TO.P,J2,2,Pin_2*%
%TO.N,GND*%
X173000000Y-91535000D03*
%TD*%
D15*
%TO.P,C5,1*%
%TO.N,+5V*%
X187500000Y-83617677D03*
D11*
%TO.P,C5,2*%
%TO.N,GND*%
X187500000Y-78617677D03*
%TD*%
D14*
%TO.P,J4,1,Pin_1*%
%TO.N,Net-(J4-Pin_1)*%
X173000000Y-104420000D03*
D13*
%TO.P,J4,2,Pin_2*%
%TO.N,GND*%
X173000000Y-109500000D03*
%TD*%
D16*
%TO.P,J3,1,Pin_1*%
%TO.N,Net-(J3-Pin_1)*%
X235172500Y-92045000D03*
D13*
%TO.P,J3,2,Pin_2*%
%TO.N,Net-(J3-Pin_2)*%
X235172500Y-86965000D03*
%TD*%
D17*
%TO.P,U2,1,~{RESET}/PB5*%
%TO.N,unconnected-(U2-~{RESET}{slash}PB5-Pad1)*%
X183195000Y-95190000D03*
D18*
%TO.P,U2,2,XTAL1/PB3*%
%TO.N,Net-(U2-XTAL1{slash}PB3)*%
X183195000Y-97730000D03*
%TO.P,U2,3,XTAL2/PB4*%
%TO.N,unconnected-(U2-XTAL2{slash}PB4-Pad3)*%
X183195000Y-100270000D03*
%TO.P,U2,4,GND*%
%TO.N,GND*%
X183195000Y-102810000D03*
%TO.P,U2,5,AREF/PB0*%
%TO.N,SCR2_MCU*%
X190815000Y-102810000D03*
%TO.P,U2,6,PB1*%
%TO.N,SCR1_MCU*%
X190815000Y-100270000D03*
%TO.P,U2,7,PB2*%
%TO.N,ZCD_MCU*%
X190815000Y-97730000D03*
%TO.P,U2,8,VCC*%
%TO.N,+5V*%
X190815000Y-95190000D03*
%TD*%
D16*
%TO.P,J5,1,Pin_1*%
%TO.N,Net-(J5-Pin_1)*%
X235172500Y-109045000D03*
D13*
%TO.P,J5,2,Pin_2*%
%TO.N,Net-(J5-Pin_2)*%
X235172500Y-103965000D03*
%TD*%
D19*
%TO.N,GND*%
X199200000Y-117600000D03*
X209000000Y-88500000D03*
X205800000Y-119000000D03*
X204800000Y-83200000D03*
X197200000Y-82600000D03*
X201200000Y-86600000D03*
X199200000Y-82600000D03*
X199250000Y-100500000D03*
X187800000Y-92800000D03*
X209000000Y-105500000D03*
X210200000Y-83000000D03*
X206800000Y-86600000D03*
X206250000Y-102750000D03*
X186000000Y-89400000D03*
X188500000Y-108500000D03*
%TO.N,ZCD_MCU*%
X199500000Y-86750000D03*
%TO.N,SCR1_MCU*%
X202750000Y-102250000D03*
%TO.N,SCR2_MCU*%
X202500000Y-118000000D03*
%TD*%
D20*
%TO.N,ZCD_MCU*%
X199250000Y-87000000D02*
X199500000Y-86750000D01*
X199250000Y-87000000D02*
X194000000Y-92250000D01*
X194000000Y-94545000D02*
X190815000Y-97730000D01*
X194000000Y-92250000D02*
X194000000Y-94545000D01*
%TO.N,SCR1_MCU*%
X190815000Y-100270000D02*
X192795000Y-102250000D01*
X192795000Y-102250000D02*
X202750000Y-102250000D01*
%TO.N,SCR2_MCU*%
X190815000Y-106315000D02*
X202500000Y-118000000D01*
X190815000Y-102810000D02*
X190815000Y-106315000D01*
%TD*%
%TA.AperFunction,Conductor*%
%TO.N,GND*%
G36*
X213193039Y-76020185D02*
G01*
X213238794Y-76072989D01*
X213250000Y-76124500D01*
X213250000Y-119875500D01*
X213230315Y-119942539D01*
X213177511Y-119988294D01*
X213126000Y-119999500D01*
X171253246Y-119999500D01*
X171246756Y-119999330D01*
X170942953Y-119983407D01*
X170930046Y-119982050D01*
X170632794Y-119934971D01*
X170620097Y-119932273D01*
X170329376Y-119854374D01*
X170317033Y-119850363D01*
X170036064Y-119742510D01*
X170024206Y-119737231D01*
X169756036Y-119600591D01*
X169744796Y-119594101D01*
X169492391Y-119430187D01*
X169481890Y-119422558D01*
X169247989Y-119233149D01*
X169238344Y-119224464D01*
X169025535Y-119011655D01*
X169016850Y-119002010D01*
X168827441Y-118768109D01*
X168819812Y-118757608D01*
X168818802Y-118756052D01*
X168655896Y-118505199D01*
X168649408Y-118493963D01*
X168590925Y-118379185D01*
X168512767Y-118225790D01*
X168507489Y-118213935D01*
X168436994Y-118030289D01*
X168399635Y-117932965D01*
X168395625Y-117920623D01*
X168394626Y-117916895D01*
X168317724Y-117629896D01*
X168315028Y-117617205D01*
X168311685Y-117596100D01*
X168267949Y-117319953D01*
X168266592Y-117307046D01*
X168250670Y-117003243D01*
X168250500Y-116996753D01*
X168250500Y-116878711D01*
X169399500Y-116878711D01*
X169399500Y-117121288D01*
X169431161Y-117361785D01*
X169493947Y-117596104D01*
X169507947Y-117629902D01*
X169586776Y-117820212D01*
X169708064Y-118030289D01*
X169708066Y-118030292D01*
X169708067Y-118030293D01*
X169855733Y-118222736D01*
X169855739Y-118222743D01*
X170027256Y-118394260D01*
X170027262Y-118394265D01*
X170219711Y-118541936D01*
X170429788Y-118663224D01*
X170653900Y-118756054D01*
X170888211Y-118818838D01*
X171068586Y-118842584D01*
X171128711Y-118850500D01*
X171128712Y-118850500D01*
X171371289Y-118850500D01*
X171419388Y-118844167D01*
X171611789Y-118818838D01*
X171846100Y-118756054D01*
X172070212Y-118663224D01*
X172280289Y-118541936D01*
X172472738Y-118394265D01*
X172644265Y-118222738D01*
X172791936Y-118030289D01*
X172913224Y-117820212D01*
X173006054Y-117596100D01*
X173068838Y-117361789D01*
X173100500Y-117121288D01*
X173100500Y-116878712D01*
X173068838Y-116638211D01*
X173006054Y-116403900D01*
X172913224Y-116179788D01*
X172791936Y-115969711D01*
X172644265Y-115777262D01*
X172644260Y-115777256D01*
X172472743Y-115605739D01*
X172472736Y-115605733D01*
X172280293Y-115458067D01*
X172280292Y-115458066D01*
X172280289Y-115458064D01*
X172070212Y-115336776D01*
X172070205Y-115336773D01*
X171846104Y-115243947D01*
X171611785Y-115181161D01*
X171371289Y-115149500D01*
X171371288Y-115149500D01*
X171128712Y-115149500D01*
X171128711Y-115149500D01*
X170888214Y-115181161D01*
X170653895Y-115243947D01*
X170429794Y-115336773D01*
X170429785Y-115336777D01*
X170219706Y-115458067D01*
X170027263Y-115605733D01*
X170027256Y-115605739D01*
X169855739Y-115777256D01*
X169855733Y-115777263D01*
X169708067Y-115969706D01*
X169586777Y-116179785D01*
X169586773Y-116179794D01*
X169493947Y-116403895D01*
X169431161Y-116638214D01*
X169399500Y-116878711D01*
X168250500Y-116878711D01*
X168250500Y-109382014D01*
X171200000Y-109382014D01*
X171200000Y-109617985D01*
X171230799Y-109851914D01*
X171291870Y-110079837D01*
X171382160Y-110297819D01*
X171382165Y-110297828D01*
X171500144Y-110502171D01*
X171500145Y-110502172D01*
X171562721Y-110583723D01*
X172398958Y-109747487D01*
X172423978Y-109807890D01*
X172495112Y-109914351D01*
X172585649Y-110004888D01*
X172692110Y-110076022D01*
X172752511Y-110101041D01*
X171916275Y-110937277D01*
X171997827Y-110999854D01*
X171997828Y-110999855D01*
X172202171Y-111117834D01*
X172202180Y-111117839D01*
X172420163Y-111208129D01*
X172420161Y-111208129D01*
X172648085Y-111269200D01*
X172882014Y-111299999D01*
X172882029Y-111300000D01*
X173117971Y-111300000D01*
X173117985Y-111299999D01*
X173351914Y-111269200D01*
X173579837Y-111208129D01*
X173797819Y-111117839D01*
X173797828Y-111117834D01*
X174002181Y-110999850D01*
X174083723Y-110937279D01*
X174083723Y-110937276D01*
X173247487Y-110101041D01*
X173307890Y-110076022D01*
X173414351Y-110004888D01*
X173504888Y-109914351D01*
X173576022Y-109807890D01*
X173601041Y-109747488D01*
X174437276Y-110583723D01*
X174437279Y-110583723D01*
X174499850Y-110502181D01*
X174617834Y-110297828D01*
X174617839Y-110297819D01*
X174708129Y-110079837D01*
X174769200Y-109851914D01*
X174799999Y-109617985D01*
X174800000Y-109617971D01*
X174800000Y-109382028D01*
X174799999Y-109382014D01*
X174769200Y-109148085D01*
X174708129Y-108920162D01*
X174617839Y-108702180D01*
X174617834Y-108702171D01*
X174499855Y-108497828D01*
X174499854Y-108497827D01*
X174437277Y-108416275D01*
X173601041Y-109252511D01*
X173576022Y-109192110D01*
X173504888Y-109085649D01*
X173414351Y-108995112D01*
X173307890Y-108923978D01*
X173247488Y-108898958D01*
X174083723Y-108062721D01*
X174002172Y-108000145D01*
X174002171Y-108000144D01*
X173797828Y-107882165D01*
X173797819Y-107882160D01*
X173579836Y-107791870D01*
X173579838Y-107791870D01*
X173351914Y-107730799D01*
X173117985Y-107700000D01*
X172882014Y-107700000D01*
X172648085Y-107730799D01*
X172420162Y-107791870D01*
X172202180Y-107882160D01*
X172202171Y-107882165D01*
X171997828Y-108000144D01*
X171997818Y-108000150D01*
X171916275Y-108062720D01*
X171916275Y-108062721D01*
X172752512Y-108898958D01*
X172692110Y-108923978D01*
X172585649Y-108995112D01*
X172495112Y-109085649D01*
X172423978Y-109192110D01*
X172398958Y-109252511D01*
X171562721Y-108416275D01*
X171562720Y-108416275D01*
X171500150Y-108497818D01*
X171500144Y-108497828D01*
X171382165Y-108702171D01*
X171382160Y-108702180D01*
X171291870Y-108920162D01*
X171230799Y-109148085D01*
X171200000Y-109382014D01*
X168250500Y-109382014D01*
X168250500Y-103319983D01*
X171199500Y-103319983D01*
X171199500Y-105520001D01*
X171199501Y-105520018D01*
X171210000Y-105622796D01*
X171210001Y-105622799D01*
X171265185Y-105789331D01*
X171265186Y-105789334D01*
X171357288Y-105938656D01*
X171481344Y-106062712D01*
X171630666Y-106154814D01*
X171797203Y-106209999D01*
X171899991Y-106220500D01*
X174100008Y-106220499D01*
X174202797Y-106209999D01*
X174369334Y-106154814D01*
X174518656Y-106062712D01*
X174642712Y-105938656D01*
X174734814Y-105789334D01*
X174789999Y-105622797D01*
X174800500Y-105520009D01*
X174800499Y-103319992D01*
X174789999Y-103217203D01*
X174734814Y-103050666D01*
X174642712Y-102901344D01*
X174518656Y-102777288D01*
X174369334Y-102685186D01*
X174202797Y-102630001D01*
X174202795Y-102630000D01*
X174100010Y-102619500D01*
X171899998Y-102619500D01*
X171899981Y-102619501D01*
X171797203Y-102630000D01*
X171797200Y-102630001D01*
X171630668Y-102685185D01*
X171630663Y-102685187D01*
X171481342Y-102777289D01*
X171357289Y-102901342D01*
X171265187Y-103050663D01*
X171265186Y-103050666D01*
X171210001Y-103217203D01*
X171210001Y-103217204D01*
X171210000Y-103217204D01*
X171199500Y-103319983D01*
X168250500Y-103319983D01*
X168250500Y-94589983D01*
X181894500Y-94589983D01*
X181894500Y-95790001D01*
X181894501Y-95790018D01*
X181905000Y-95892796D01*
X181905001Y-95892799D01*
X181951268Y-96032422D01*
X181960186Y-96059334D01*
X182052288Y-96208656D01*
X182176344Y-96332712D01*
X182325666Y-96424814D01*
X182407570Y-96451954D01*
X182465015Y-96491727D01*
X182491838Y-96556243D01*
X182479523Y-96625018D01*
X182441451Y-96669978D01*
X182347787Y-96738028D01*
X182347782Y-96738032D01*
X182203028Y-96882786D01*
X182082715Y-97048386D01*
X181989781Y-97230776D01*
X181926522Y-97425465D01*
X181894500Y-97627648D01*
X181894500Y-97832351D01*
X181926522Y-98034534D01*
X181989781Y-98229223D01*
X182082715Y-98411613D01*
X182203028Y-98577213D01*
X182347786Y-98721971D01*
X182502749Y-98834556D01*
X182513390Y-98842287D01*
X182604840Y-98888883D01*
X182606080Y-98889515D01*
X182656876Y-98937490D01*
X182673671Y-99005311D01*
X182651134Y-99071446D01*
X182606080Y-99110485D01*
X182513386Y-99157715D01*
X182347786Y-99278028D01*
X182203028Y-99422786D01*
X182082715Y-99588386D01*
X181989781Y-99770776D01*
X181926522Y-99965465D01*
X181894500Y-100167648D01*
X181894500Y-100372351D01*
X181926522Y-100574534D01*
X181989781Y-100769223D01*
X182082715Y-100951613D01*
X182203028Y-101117213D01*
X182347786Y-101261971D01*
X182513385Y-101382284D01*
X182513387Y-101382285D01*
X182513390Y-101382287D01*
X182606080Y-101429515D01*
X182606630Y-101429795D01*
X182657426Y-101477770D01*
X182674221Y-101545591D01*
X182651684Y-101611725D01*
X182606630Y-101650765D01*
X182513644Y-101698143D01*
X182469077Y-101730523D01*
X182469077Y-101730524D01*
X183148554Y-102410000D01*
X183142339Y-102410000D01*
X183040606Y-102437259D01*
X182949394Y-102489920D01*
X182874920Y-102564394D01*
X182822259Y-102655606D01*
X182795000Y-102757339D01*
X182795000Y-102763553D01*
X182115524Y-102084077D01*
X182115523Y-102084077D01*
X182083143Y-102128644D01*
X181990244Y-102310968D01*
X181927009Y-102505582D01*
X181895000Y-102707682D01*
X181895000Y-102912317D01*
X181927009Y-103114417D01*
X181990244Y-103309031D01*
X182083141Y-103491350D01*
X182083147Y-103491359D01*
X182115523Y-103535921D01*
X182115524Y-103535922D01*
X182795000Y-102856446D01*
X182795000Y-102862661D01*
X182822259Y-102964394D01*
X182874920Y-103055606D01*
X182949394Y-103130080D01*
X183040606Y-103182741D01*
X183142339Y-103210000D01*
X183148553Y-103210000D01*
X182469076Y-103889474D01*
X182513650Y-103921859D01*
X182695968Y-104014755D01*
X182890582Y-104077990D01*
X183092683Y-104110000D01*
X183297317Y-104110000D01*
X183499417Y-104077990D01*
X183694031Y-104014755D01*
X183876349Y-103921859D01*
X183920921Y-103889474D01*
X183241447Y-103210000D01*
X183247661Y-103210000D01*
X183349394Y-103182741D01*
X183440606Y-103130080D01*
X183515080Y-103055606D01*
X183567741Y-102964394D01*
X183595000Y-102862661D01*
X183595000Y-102856448D01*
X184274474Y-103535922D01*
X184274474Y-103535921D01*
X184306859Y-103491349D01*
X184399755Y-103309031D01*
X184462990Y-103114417D01*
X184495000Y-102912317D01*
X184495000Y-102707682D01*
X184462990Y-102505582D01*
X184399755Y-102310968D01*
X184306859Y-102128650D01*
X184274474Y-102084077D01*
X184274474Y-102084076D01*
X183595000Y-102763551D01*
X183595000Y-102757339D01*
X183567741Y-102655606D01*
X183515080Y-102564394D01*
X183440606Y-102489920D01*
X183349394Y-102437259D01*
X183247661Y-102410000D01*
X183241446Y-102410000D01*
X183920922Y-101730524D01*
X183920921Y-101730523D01*
X183876359Y-101698147D01*
X183876350Y-101698141D01*
X183783369Y-101650765D01*
X183732573Y-101602790D01*
X183715778Y-101534969D01*
X183738315Y-101468835D01*
X183783370Y-101429795D01*
X183783920Y-101429515D01*
X183876610Y-101382287D01*
X183926144Y-101346298D01*
X184042213Y-101261971D01*
X184042215Y-101261968D01*
X184042219Y-101261966D01*
X184186966Y-101117219D01*
X184186968Y-101117215D01*
X184186971Y-101117213D01*
X184239732Y-101044590D01*
X184307287Y-100951610D01*
X184400220Y-100769219D01*
X184463477Y-100574534D01*
X184495500Y-100372352D01*
X184495500Y-100167648D01*
X184463477Y-99965466D01*
X184400220Y-99770781D01*
X184400218Y-99770778D01*
X184400218Y-99770776D01*
X184366503Y-99704607D01*
X184307287Y-99588390D01*
X184299556Y-99577749D01*
X184186971Y-99422786D01*
X184042213Y-99278028D01*
X183876614Y-99157715D01*
X183870006Y-99154348D01*
X183783917Y-99110483D01*
X183733123Y-99062511D01*
X183716328Y-98994690D01*
X183738865Y-98928555D01*
X183783917Y-98889516D01*
X183876610Y-98842287D01*
X183897770Y-98826913D01*
X184042213Y-98721971D01*
X184042215Y-98721968D01*
X184042219Y-98721966D01*
X184186966Y-98577219D01*
X184186968Y-98577215D01*
X184186971Y-98577213D01*
X184239732Y-98504590D01*
X184307287Y-98411610D01*
X184400220Y-98229219D01*
X184463477Y-98034534D01*
X184495500Y-97832352D01*
X184495500Y-97627648D01*
X184463477Y-97425466D01*
X184439773Y-97352514D01*
X184400218Y-97230776D01*
X184350053Y-97132323D01*
X184307287Y-97048390D01*
X184299556Y-97037749D01*
X184186971Y-96882786D01*
X184042219Y-96738034D01*
X184042211Y-96738028D01*
X183948547Y-96669978D01*
X183905882Y-96614649D01*
X183899903Y-96545036D01*
X183932508Y-96483240D01*
X183982426Y-96451955D01*
X184064334Y-96424814D01*
X184213656Y-96332712D01*
X184337712Y-96208656D01*
X184429814Y-96059334D01*
X184484999Y-95892797D01*
X184495500Y-95790009D01*
X184495499Y-95087648D01*
X189514500Y-95087648D01*
X189514500Y-95292351D01*
X189546522Y-95494534D01*
X189609781Y-95689223D01*
X189702715Y-95871613D01*
X189823028Y-96037213D01*
X189967786Y-96181971D01*
X190122749Y-96294556D01*
X190133390Y-96302287D01*
X190224840Y-96348883D01*
X190226080Y-96349515D01*
X190276876Y-96397490D01*
X190293671Y-96465311D01*
X190271134Y-96531446D01*
X190226080Y-96570485D01*
X190133386Y-96617715D01*
X189967786Y-96738028D01*
X189823028Y-96882786D01*
X189702715Y-97048386D01*
X189609781Y-97230776D01*
X189546522Y-97425465D01*
X189514500Y-97627648D01*
X189514500Y-97832351D01*
X189546522Y-98034534D01*
X189609781Y-98229223D01*
X189702715Y-98411613D01*
X189823028Y-98577213D01*
X189967786Y-98721971D01*
X190122749Y-98834556D01*
X190133390Y-98842287D01*
X190224840Y-98888883D01*
X190226080Y-98889515D01*
X190276876Y-98937490D01*
X190293671Y-99005311D01*
X190271134Y-99071446D01*
X190226080Y-99110485D01*
X190133386Y-99157715D01*
X189967786Y-99278028D01*
X189823028Y-99422786D01*
X189702715Y-99588386D01*
X189609781Y-99770776D01*
X189546522Y-99965465D01*
X189514500Y-100167648D01*
X189514500Y-100372351D01*
X189546522Y-100574534D01*
X189609781Y-100769223D01*
X189702715Y-100951613D01*
X189823028Y-101117213D01*
X189967786Y-101261971D01*
X190122749Y-101374556D01*
X190133390Y-101382287D01*
X190224840Y-101428883D01*
X190226080Y-101429515D01*
X190276876Y-101477490D01*
X190293671Y-101545311D01*
X190271134Y-101611446D01*
X190226080Y-101650485D01*
X190133386Y-101697715D01*
X189967786Y-101818028D01*
X189823028Y-101962786D01*
X189702715Y-102128386D01*
X189609781Y-102310776D01*
X189546522Y-102505465D01*
X189514500Y-102707648D01*
X189514500Y-102912351D01*
X189546522Y-103114534D01*
X189609781Y-103309223D01*
X189673691Y-103434653D01*
X189702585Y-103491359D01*
X189702715Y-103491613D01*
X189823028Y-103657213D01*
X189967784Y-103801969D01*
X190034572Y-103850492D01*
X190133390Y-103922287D01*
X190133395Y-103922289D01*
X190136384Y-103924461D01*
X190179051Y-103979791D01*
X190187500Y-104024780D01*
X190187500Y-106376807D01*
X190211612Y-106498027D01*
X190211614Y-106498035D01*
X190245062Y-106578785D01*
X190258915Y-106612229D01*
X190258920Y-106612239D01*
X190327588Y-106715007D01*
X190327591Y-106715011D01*
X201674907Y-118062326D01*
X201708392Y-118123649D01*
X201708843Y-118125815D01*
X201730261Y-118233491D01*
X201730264Y-118233501D01*
X201790602Y-118379172D01*
X201790609Y-118379185D01*
X201878210Y-118510288D01*
X201878213Y-118510292D01*
X201989707Y-118621786D01*
X201989711Y-118621789D01*
X202120814Y-118709390D01*
X202120827Y-118709397D01*
X202266498Y-118769735D01*
X202266503Y-118769737D01*
X202421153Y-118800499D01*
X202421156Y-118800500D01*
X202421158Y-118800500D01*
X202578844Y-118800500D01*
X202578845Y-118800499D01*
X202733497Y-118769737D01*
X202879179Y-118709394D01*
X203010289Y-118621789D01*
X203121789Y-118510289D01*
X203209394Y-118379179D01*
X203269737Y-118233497D01*
X203300500Y-118078842D01*
X203300500Y-117921158D01*
X203300500Y-117921155D01*
X203300499Y-117921153D01*
X203269738Y-117766510D01*
X203269737Y-117766503D01*
X203269735Y-117766498D01*
X203209397Y-117620827D01*
X203209390Y-117620814D01*
X203121789Y-117489711D01*
X203121786Y-117489707D01*
X203010292Y-117378213D01*
X203010288Y-117378210D01*
X202879185Y-117290609D01*
X202879172Y-117290602D01*
X202733501Y-117230264D01*
X202733491Y-117230261D01*
X202625815Y-117208843D01*
X202563904Y-117176458D01*
X202562326Y-117174907D01*
X199705267Y-114317848D01*
X199671782Y-114256525D01*
X199676766Y-114186833D01*
X199718638Y-114130900D01*
X199773551Y-114107693D01*
X199851253Y-114095386D01*
X200075802Y-114022425D01*
X200286163Y-113915241D01*
X200286169Y-113915237D01*
X200369104Y-113854981D01*
X200369105Y-113854981D01*
X199629408Y-113115285D01*
X199692993Y-113098248D01*
X199807007Y-113032422D01*
X199900099Y-112939330D01*
X199965925Y-112825316D01*
X199982962Y-112761732D01*
X200722658Y-113501428D01*
X200722658Y-113501427D01*
X200782914Y-113418492D01*
X200782918Y-113418486D01*
X200890102Y-113208125D01*
X200963065Y-112983570D01*
X201000000Y-112750375D01*
X201000000Y-112514270D01*
X200963065Y-112281075D01*
X200890102Y-112056520D01*
X200782914Y-111846151D01*
X200722658Y-111763217D01*
X200722658Y-111763216D01*
X199982962Y-112502913D01*
X199965925Y-112439330D01*
X199900099Y-112325316D01*
X199807007Y-112232224D01*
X199692993Y-112166398D01*
X199629409Y-112149360D01*
X200369105Y-111409663D01*
X200369104Y-111409661D01*
X200286174Y-111349410D01*
X200075802Y-111242220D01*
X199851247Y-111169257D01*
X199851248Y-111169257D01*
X199618052Y-111132323D01*
X199381948Y-111132323D01*
X199148752Y-111169257D01*
X198924197Y-111242220D01*
X198713830Y-111349407D01*
X198630894Y-111409663D01*
X199370591Y-112149360D01*
X199307007Y-112166398D01*
X199192993Y-112232224D01*
X199099901Y-112325316D01*
X199034075Y-112439330D01*
X199017037Y-112502914D01*
X198277340Y-111763217D01*
X198217084Y-111846153D01*
X198109897Y-112056520D01*
X198036934Y-112281075D01*
X198024628Y-112358772D01*
X197994698Y-112421907D01*
X197935387Y-112458838D01*
X197865524Y-112457840D01*
X197814474Y-112427055D01*
X192219725Y-106832306D01*
X197999500Y-106832306D01*
X197999500Y-108432324D01*
X197999501Y-108432341D01*
X198010000Y-108535119D01*
X198010001Y-108535122D01*
X198065185Y-108701654D01*
X198065187Y-108701659D01*
X198100069Y-108758211D01*
X198157288Y-108850979D01*
X198281344Y-108975035D01*
X198430666Y-109067137D01*
X198597203Y-109122322D01*
X198699991Y-109132823D01*
X200300008Y-109132822D01*
X200402797Y-109122322D01*
X200569334Y-109067137D01*
X200718656Y-108975035D01*
X200842712Y-108850979D01*
X200934814Y-108701657D01*
X200989999Y-108535120D01*
X201000500Y-108432332D01*
X201000499Y-106832315D01*
X200989999Y-106729526D01*
X200934814Y-106562989D01*
X200842712Y-106413667D01*
X200718656Y-106289611D01*
X200569334Y-106197509D01*
X200402797Y-106142324D01*
X200402795Y-106142323D01*
X200300010Y-106131823D01*
X198699998Y-106131823D01*
X198699981Y-106131824D01*
X198597203Y-106142323D01*
X198597200Y-106142324D01*
X198430668Y-106197508D01*
X198430663Y-106197510D01*
X198281342Y-106289612D01*
X198157289Y-106413665D01*
X198065187Y-106562986D01*
X198065185Y-106562991D01*
X198048869Y-106612229D01*
X198010001Y-106729526D01*
X198010001Y-106729527D01*
X198010000Y-106729527D01*
X197999500Y-106832306D01*
X192219725Y-106832306D01*
X191478819Y-106091400D01*
X191445334Y-106030077D01*
X191442500Y-106003719D01*
X191442500Y-104024780D01*
X191462185Y-103957741D01*
X191493616Y-103924461D01*
X191496604Y-103922289D01*
X191496610Y-103922287D01*
X191662219Y-103801966D01*
X191806966Y-103657219D01*
X191806968Y-103657215D01*
X191806971Y-103657213D01*
X191859732Y-103584590D01*
X191927287Y-103491610D01*
X192020220Y-103309219D01*
X192083477Y-103114534D01*
X192115500Y-102912352D01*
X192115500Y-102757281D01*
X192135185Y-102690242D01*
X192187989Y-102644487D01*
X192257147Y-102634543D01*
X192320703Y-102663568D01*
X192327167Y-102669586D01*
X192365229Y-102707648D01*
X192394994Y-102737413D01*
X192394996Y-102737414D01*
X192497756Y-102806076D01*
X192497758Y-102806077D01*
X192497767Y-102806083D01*
X192522772Y-102816440D01*
X192545071Y-102825677D01*
X192587254Y-102843149D01*
X192611966Y-102853386D01*
X192733192Y-102877499D01*
X192733196Y-102877500D01*
X192733197Y-102877500D01*
X202210643Y-102877500D01*
X202277682Y-102897185D01*
X202279534Y-102898398D01*
X202370814Y-102959390D01*
X202370827Y-102959397D01*
X202516498Y-103019735D01*
X202516503Y-103019737D01*
X202671153Y-103050499D01*
X202671156Y-103050500D01*
X202671158Y-103050500D01*
X202828844Y-103050500D01*
X202828845Y-103050499D01*
X202983497Y-103019737D01*
X203129179Y-102959394D01*
X203260289Y-102871789D01*
X203371789Y-102760289D01*
X203459394Y-102629179D01*
X203519737Y-102483497D01*
X203550500Y-102328842D01*
X203550500Y-102171158D01*
X203550500Y-102171155D01*
X203550499Y-102171153D01*
X203519737Y-102016503D01*
X203497485Y-101962781D01*
X203459397Y-101870827D01*
X203459390Y-101870814D01*
X203371789Y-101739711D01*
X203371786Y-101739707D01*
X203260292Y-101628213D01*
X203260288Y-101628210D01*
X203129185Y-101540609D01*
X203129172Y-101540602D01*
X202983501Y-101480264D01*
X202983489Y-101480261D01*
X202828845Y-101449500D01*
X202828842Y-101449500D01*
X202671158Y-101449500D01*
X202671155Y-101449500D01*
X202516510Y-101480261D01*
X202516498Y-101480264D01*
X202370827Y-101540602D01*
X202370814Y-101540609D01*
X202279534Y-101601602D01*
X202212857Y-101622480D01*
X202210643Y-101622500D01*
X193106281Y-101622500D01*
X193039242Y-101602815D01*
X193018600Y-101586181D01*
X192117689Y-100685270D01*
X192084204Y-100623947D01*
X192082897Y-100578190D01*
X192083475Y-100574539D01*
X192083477Y-100574534D01*
X192115500Y-100372352D01*
X192115500Y-100167648D01*
X192083477Y-99965466D01*
X192020220Y-99770781D01*
X192020218Y-99770778D01*
X192020218Y-99770776D01*
X191986503Y-99704607D01*
X191927287Y-99588390D01*
X191919556Y-99577749D01*
X191806971Y-99422786D01*
X191662213Y-99278028D01*
X191496614Y-99157715D01*
X191490006Y-99154348D01*
X191403917Y-99110483D01*
X191353123Y-99062511D01*
X191336328Y-98994690D01*
X191358865Y-98928555D01*
X191403917Y-98889516D01*
X191496610Y-98842287D01*
X191517770Y-98826913D01*
X191662213Y-98721971D01*
X191662215Y-98721968D01*
X191662219Y-98721966D01*
X191806966Y-98577219D01*
X191806968Y-98577215D01*
X191806971Y-98577213D01*
X191859732Y-98504590D01*
X191927287Y-98411610D01*
X192020220Y-98229219D01*
X192083477Y-98034534D01*
X192115500Y-97832352D01*
X192115500Y-97627648D01*
X192083477Y-97425466D01*
X192083476Y-97425463D01*
X192082897Y-97421807D01*
X192091851Y-97352514D01*
X192117686Y-97314731D01*
X193918149Y-95514270D01*
X198000000Y-95514270D01*
X198000000Y-95750375D01*
X198036934Y-95983570D01*
X198109897Y-96208125D01*
X198217087Y-96418497D01*
X198277338Y-96501427D01*
X198277340Y-96501428D01*
X199017037Y-95761731D01*
X199034075Y-95825316D01*
X199099901Y-95939330D01*
X199192993Y-96032422D01*
X199307007Y-96098248D01*
X199370590Y-96115285D01*
X198630893Y-96854981D01*
X198713828Y-96915237D01*
X198924197Y-97022425D01*
X199148752Y-97095388D01*
X199148751Y-97095388D01*
X199381948Y-97132323D01*
X199618052Y-97132323D01*
X199851247Y-97095388D01*
X200075802Y-97022425D01*
X200286163Y-96915241D01*
X200286169Y-96915237D01*
X200369104Y-96854981D01*
X200369105Y-96854981D01*
X199629408Y-96115285D01*
X199692993Y-96098248D01*
X199807007Y-96032422D01*
X199900099Y-95939330D01*
X199965925Y-95825316D01*
X199982962Y-95761732D01*
X200722658Y-96501428D01*
X200722658Y-96501427D01*
X200782914Y-96418492D01*
X200782918Y-96418486D01*
X200890102Y-96208125D01*
X200963065Y-95983570D01*
X201000000Y-95750375D01*
X201000000Y-95514270D01*
X200963065Y-95281075D01*
X200890102Y-95056520D01*
X200782914Y-94846151D01*
X200722658Y-94763217D01*
X200722658Y-94763216D01*
X199982962Y-95502913D01*
X199965925Y-95439330D01*
X199900099Y-95325316D01*
X199807007Y-95232224D01*
X199692993Y-95166398D01*
X199629409Y-95149360D01*
X200369105Y-94409663D01*
X200369104Y-94409661D01*
X200286174Y-94349410D01*
X200075802Y-94242220D01*
X199851247Y-94169257D01*
X199851248Y-94169257D01*
X199618052Y-94132323D01*
X199381948Y-94132323D01*
X199148752Y-94169257D01*
X198924197Y-94242220D01*
X198713830Y-94349407D01*
X198630894Y-94409663D01*
X199370591Y-95149360D01*
X199307007Y-95166398D01*
X199192993Y-95232224D01*
X199099901Y-95325316D01*
X199034075Y-95439330D01*
X199017037Y-95502914D01*
X198277340Y-94763217D01*
X198217084Y-94846153D01*
X198109897Y-95056520D01*
X198036934Y-95281075D01*
X198000000Y-95514270D01*
X193918149Y-95514270D01*
X194487411Y-94945008D01*
X194487416Y-94945001D01*
X194499218Y-94927338D01*
X194499220Y-94927334D01*
X194556083Y-94842233D01*
X194603385Y-94728035D01*
X194627500Y-94606803D01*
X194627500Y-92561280D01*
X194647185Y-92494241D01*
X194663814Y-92473604D01*
X197305111Y-89832306D01*
X197999500Y-89832306D01*
X197999500Y-91432324D01*
X197999501Y-91432341D01*
X198010000Y-91535119D01*
X198010001Y-91535122D01*
X198065185Y-91701654D01*
X198065186Y-91701657D01*
X198157288Y-91850979D01*
X198281344Y-91975035D01*
X198430666Y-92067137D01*
X198597203Y-92122322D01*
X198699991Y-92132823D01*
X200300008Y-92132822D01*
X200402797Y-92122322D01*
X200569334Y-92067137D01*
X200718656Y-91975035D01*
X200842712Y-91850979D01*
X200934814Y-91701657D01*
X200989999Y-91535120D01*
X201000500Y-91432332D01*
X201000499Y-89832315D01*
X200989999Y-89729526D01*
X200934814Y-89562989D01*
X200842712Y-89413667D01*
X200718656Y-89289611D01*
X200569334Y-89197509D01*
X200402797Y-89142324D01*
X200402795Y-89142323D01*
X200300010Y-89131823D01*
X198699998Y-89131823D01*
X198699981Y-89131824D01*
X198597203Y-89142323D01*
X198597200Y-89142324D01*
X198430668Y-89197508D01*
X198430663Y-89197510D01*
X198281342Y-89289612D01*
X198157289Y-89413665D01*
X198065187Y-89562986D01*
X198065186Y-89562989D01*
X198010001Y-89729526D01*
X198010001Y-89729527D01*
X198010000Y-89729527D01*
X197999500Y-89832306D01*
X197305111Y-89832306D01*
X199562328Y-87575089D01*
X199623649Y-87541606D01*
X199625648Y-87541189D01*
X199733497Y-87519737D01*
X199879179Y-87459394D01*
X200010289Y-87371789D01*
X200121789Y-87260289D01*
X200209394Y-87129179D01*
X200269737Y-86983497D01*
X200300500Y-86828842D01*
X200300500Y-86671158D01*
X200300500Y-86671155D01*
X200300499Y-86671153D01*
X200269738Y-86516510D01*
X200269738Y-86516508D01*
X200269737Y-86516503D01*
X200269735Y-86516498D01*
X200209397Y-86370827D01*
X200209390Y-86370814D01*
X200121789Y-86239711D01*
X200121786Y-86239707D01*
X200010292Y-86128213D01*
X200010288Y-86128210D01*
X199879185Y-86040609D01*
X199879172Y-86040602D01*
X199733501Y-85980264D01*
X199733489Y-85980261D01*
X199578845Y-85949500D01*
X199578842Y-85949500D01*
X199421158Y-85949500D01*
X199421155Y-85949500D01*
X199266510Y-85980261D01*
X199266498Y-85980264D01*
X199120827Y-86040602D01*
X199120814Y-86040609D01*
X198989711Y-86128210D01*
X198989707Y-86128213D01*
X198878213Y-86239707D01*
X198878210Y-86239711D01*
X198790609Y-86370814D01*
X198790602Y-86370827D01*
X198730264Y-86516498D01*
X198730261Y-86516508D01*
X198708843Y-86624183D01*
X198676458Y-86686094D01*
X198674907Y-86687672D01*
X194829763Y-90532818D01*
X193599992Y-91762589D01*
X193512589Y-91849992D01*
X193446200Y-91949351D01*
X193443916Y-91952769D01*
X193430061Y-91986214D01*
X193430062Y-91986215D01*
X193396614Y-92066964D01*
X193396612Y-92066972D01*
X193372500Y-92188192D01*
X193372500Y-94233718D01*
X193352815Y-94300757D01*
X193336181Y-94321399D01*
X192327181Y-95330399D01*
X192265858Y-95363884D01*
X192196166Y-95358900D01*
X192140233Y-95317028D01*
X192115816Y-95251564D01*
X192115500Y-95242718D01*
X192115500Y-95087648D01*
X192083477Y-94885465D01*
X192043756Y-94763217D01*
X192020220Y-94690781D01*
X192020218Y-94690778D01*
X192020218Y-94690776D01*
X191968865Y-94589991D01*
X191927287Y-94508390D01*
X191911892Y-94487200D01*
X191806971Y-94342786D01*
X191662213Y-94198028D01*
X191496613Y-94077715D01*
X191496612Y-94077714D01*
X191496610Y-94077713D01*
X191436898Y-94047288D01*
X191314223Y-93984781D01*
X191119534Y-93921522D01*
X190944995Y-93893878D01*
X190917352Y-93889500D01*
X190712648Y-93889500D01*
X190688329Y-93893351D01*
X190510465Y-93921522D01*
X190315776Y-93984781D01*
X190133386Y-94077715D01*
X189967786Y-94198028D01*
X189823028Y-94342786D01*
X189702715Y-94508386D01*
X189609781Y-94690776D01*
X189546522Y-94885465D01*
X189514500Y-95087648D01*
X184495499Y-95087648D01*
X184495499Y-94589992D01*
X184484999Y-94487203D01*
X184429814Y-94320666D01*
X184337712Y-94171344D01*
X184213656Y-94047288D01*
X184064334Y-93955186D01*
X183897797Y-93900001D01*
X183897795Y-93900000D01*
X183795010Y-93889500D01*
X182594998Y-93889500D01*
X182594981Y-93889501D01*
X182492203Y-93900000D01*
X182492200Y-93900001D01*
X182325668Y-93955185D01*
X182325663Y-93955187D01*
X182176342Y-94047289D01*
X182052289Y-94171342D01*
X181960187Y-94320663D01*
X181960186Y-94320666D01*
X181905001Y-94487203D01*
X181905001Y-94487204D01*
X181905000Y-94487204D01*
X181894500Y-94589983D01*
X168250500Y-94589983D01*
X168250500Y-91417014D01*
X171200000Y-91417014D01*
X171200000Y-91652985D01*
X171230799Y-91886914D01*
X171291870Y-92114837D01*
X171382160Y-92332819D01*
X171382165Y-92332828D01*
X171500144Y-92537171D01*
X171500145Y-92537172D01*
X171562721Y-92618723D01*
X172398958Y-91782487D01*
X172423978Y-91842890D01*
X172495112Y-91949351D01*
X172585649Y-92039888D01*
X172692110Y-92111022D01*
X172752511Y-92136041D01*
X171916275Y-92972277D01*
X171997827Y-93034854D01*
X171997828Y-93034855D01*
X172202171Y-93152834D01*
X172202180Y-93152839D01*
X172420163Y-93243129D01*
X172420161Y-93243129D01*
X172648085Y-93304200D01*
X172882014Y-93334999D01*
X172882029Y-93335000D01*
X173117971Y-93335000D01*
X173117985Y-93334999D01*
X173351914Y-93304200D01*
X173579837Y-93243129D01*
X173797819Y-93152839D01*
X173797828Y-93152834D01*
X174002181Y-93034850D01*
X174083723Y-92972279D01*
X174083723Y-92972276D01*
X173247487Y-92136041D01*
X173307890Y-92111022D01*
X173414351Y-92039888D01*
X173504888Y-91949351D01*
X173576022Y-91842890D01*
X173601041Y-91782488D01*
X174437276Y-92618723D01*
X174437279Y-92618723D01*
X174499850Y-92537181D01*
X174617834Y-92332828D01*
X174617839Y-92332819D01*
X174708129Y-92114837D01*
X174769200Y-91886914D01*
X174799999Y-91652985D01*
X174800000Y-91652971D01*
X174800000Y-91417028D01*
X174799999Y-91417014D01*
X174769200Y-91183085D01*
X174708129Y-90955162D01*
X174617839Y-90737180D01*
X174617834Y-90737171D01*
X174499855Y-90532828D01*
X174499854Y-90532827D01*
X174437277Y-90451275D01*
X173601041Y-91287511D01*
X173576022Y-91227110D01*
X173504888Y-91120649D01*
X173414351Y-91030112D01*
X173307890Y-90958978D01*
X173247488Y-90933958D01*
X174083723Y-90097721D01*
X174002172Y-90035145D01*
X174002171Y-90035144D01*
X173797828Y-89917165D01*
X173797819Y-89917160D01*
X173579836Y-89826870D01*
X173579838Y-89826870D01*
X173351914Y-89765799D01*
X173117985Y-89735000D01*
X172882014Y-89735000D01*
X172648085Y-89765799D01*
X172420162Y-89826870D01*
X172202180Y-89917160D01*
X172202171Y-89917165D01*
X171997828Y-90035144D01*
X171997818Y-90035150D01*
X171916275Y-90097720D01*
X171916275Y-90097721D01*
X172752512Y-90933958D01*
X172692110Y-90958978D01*
X172585649Y-91030112D01*
X172495112Y-91120649D01*
X172423978Y-91227110D01*
X172398958Y-91287511D01*
X171562721Y-90451275D01*
X171562720Y-90451275D01*
X171500150Y-90532818D01*
X171500144Y-90532828D01*
X171382165Y-90737171D01*
X171382160Y-90737180D01*
X171291870Y-90955162D01*
X171230799Y-91183085D01*
X171200000Y-91417014D01*
X168250500Y-91417014D01*
X168250500Y-85354983D01*
X171199500Y-85354983D01*
X171199500Y-87555001D01*
X171199501Y-87555018D01*
X171210000Y-87657796D01*
X171210001Y-87657799D01*
X171265185Y-87824331D01*
X171265186Y-87824334D01*
X171357288Y-87973656D01*
X171481344Y-88097712D01*
X171630666Y-88189814D01*
X171797203Y-88244999D01*
X171899991Y-88255500D01*
X174100008Y-88255499D01*
X174202797Y-88244999D01*
X174369334Y-88189814D01*
X174518656Y-88097712D01*
X174642712Y-87973656D01*
X174734814Y-87824334D01*
X174789999Y-87657797D01*
X174800500Y-87555009D01*
X174800499Y-85354992D01*
X174789999Y-85252203D01*
X174734814Y-85085666D01*
X174642712Y-84936344D01*
X174518656Y-84812288D01*
X174369334Y-84720186D01*
X174202797Y-84665001D01*
X174202795Y-84665000D01*
X174100010Y-84654500D01*
X171899998Y-84654500D01*
X171899981Y-84654501D01*
X171797203Y-84665000D01*
X171797200Y-84665001D01*
X171630668Y-84720185D01*
X171630663Y-84720187D01*
X171481342Y-84812289D01*
X171357289Y-84936342D01*
X171265187Y-85085663D01*
X171265185Y-85085668D01*
X171254413Y-85118176D01*
X171210001Y-85252203D01*
X171210001Y-85252204D01*
X171210000Y-85252204D01*
X171199500Y-85354983D01*
X168250500Y-85354983D01*
X168250500Y-82817660D01*
X185999500Y-82817660D01*
X185999500Y-84417678D01*
X185999501Y-84417695D01*
X186010000Y-84520473D01*
X186010001Y-84520476D01*
X186054413Y-84654500D01*
X186065186Y-84687011D01*
X186157288Y-84836333D01*
X186281344Y-84960389D01*
X186430666Y-85052491D01*
X186597203Y-85107676D01*
X186699991Y-85118177D01*
X188300008Y-85118176D01*
X188402797Y-85107676D01*
X188569334Y-85052491D01*
X188718656Y-84960389D01*
X188842712Y-84836333D01*
X188934814Y-84687011D01*
X188989999Y-84520474D01*
X189000500Y-84417686D01*
X189000499Y-82817669D01*
X188989999Y-82714880D01*
X188934814Y-82548343D01*
X188842712Y-82399021D01*
X188718656Y-82274965D01*
X188569334Y-82182863D01*
X188402797Y-82127678D01*
X188402795Y-82127677D01*
X188300010Y-82117177D01*
X186699998Y-82117177D01*
X186699981Y-82117178D01*
X186597203Y-82127677D01*
X186597200Y-82127678D01*
X186430668Y-82182862D01*
X186430663Y-82182864D01*
X186281342Y-82274966D01*
X186157289Y-82399019D01*
X186065187Y-82548340D01*
X186065186Y-82548343D01*
X186010001Y-82714880D01*
X186010001Y-82714881D01*
X186010000Y-82714881D01*
X185999500Y-82817660D01*
X168250500Y-82817660D01*
X168250500Y-79003246D01*
X168250670Y-78996757D01*
X168254447Y-78924684D01*
X168256856Y-78878711D01*
X169399500Y-78878711D01*
X169399500Y-79121288D01*
X169431161Y-79361785D01*
X169493947Y-79596104D01*
X169555880Y-79745623D01*
X169586776Y-79820212D01*
X169708064Y-80030289D01*
X169708066Y-80030292D01*
X169708067Y-80030293D01*
X169855733Y-80222736D01*
X169855739Y-80222743D01*
X170027256Y-80394260D01*
X170027262Y-80394265D01*
X170219711Y-80541936D01*
X170429788Y-80663224D01*
X170653900Y-80756054D01*
X170888211Y-80818838D01*
X171068586Y-80842584D01*
X171128711Y-80850500D01*
X171128712Y-80850500D01*
X171371289Y-80850500D01*
X171419388Y-80844167D01*
X171611789Y-80818838D01*
X171846100Y-80756054D01*
X172070212Y-80663224D01*
X172280289Y-80541936D01*
X172472738Y-80394265D01*
X172644265Y-80222738D01*
X172791936Y-80030289D01*
X172913224Y-79820212D01*
X173006054Y-79596100D01*
X173068838Y-79361789D01*
X173100500Y-79121288D01*
X173100500Y-78878712D01*
X173068838Y-78638211D01*
X173031703Y-78499624D01*
X186000000Y-78499624D01*
X186000000Y-78735729D01*
X186036934Y-78968924D01*
X186109897Y-79193479D01*
X186217087Y-79403851D01*
X186277338Y-79486781D01*
X186277340Y-79486782D01*
X187017037Y-78747085D01*
X187034075Y-78810670D01*
X187099901Y-78924684D01*
X187192993Y-79017776D01*
X187307007Y-79083602D01*
X187370590Y-79100639D01*
X186630893Y-79840335D01*
X186713828Y-79900591D01*
X186924197Y-80007779D01*
X187148752Y-80080742D01*
X187148751Y-80080742D01*
X187381948Y-80117677D01*
X187618052Y-80117677D01*
X187851247Y-80080742D01*
X188075802Y-80007779D01*
X188286163Y-79900595D01*
X188286169Y-79900591D01*
X188369104Y-79840335D01*
X188369105Y-79840335D01*
X187629408Y-79100639D01*
X187692993Y-79083602D01*
X187807007Y-79017776D01*
X187900099Y-78924684D01*
X187965925Y-78810670D01*
X187982962Y-78747085D01*
X188722658Y-79486782D01*
X188722658Y-79486781D01*
X188782914Y-79403846D01*
X188782918Y-79403840D01*
X188890102Y-79193479D01*
X188963065Y-78968924D01*
X189000000Y-78735729D01*
X189000000Y-78499624D01*
X188963065Y-78266429D01*
X188890102Y-78041874D01*
X188782914Y-77831505D01*
X188722658Y-77748571D01*
X188722658Y-77748570D01*
X187982962Y-78488267D01*
X187965925Y-78424684D01*
X187900099Y-78310670D01*
X187807007Y-78217578D01*
X187692993Y-78151752D01*
X187629409Y-78134714D01*
X188369105Y-77395017D01*
X188369104Y-77395015D01*
X188286174Y-77334764D01*
X188075802Y-77227574D01*
X187851247Y-77154611D01*
X187851248Y-77154611D01*
X187618052Y-77117677D01*
X187381948Y-77117677D01*
X187148752Y-77154611D01*
X186924197Y-77227574D01*
X186713830Y-77334761D01*
X186630894Y-77395017D01*
X187370591Y-78134714D01*
X187307007Y-78151752D01*
X187192993Y-78217578D01*
X187099901Y-78310670D01*
X187034075Y-78424684D01*
X187017037Y-78488268D01*
X186277340Y-77748571D01*
X186217084Y-77831507D01*
X186109897Y-78041874D01*
X186036934Y-78266429D01*
X186000000Y-78499624D01*
X173031703Y-78499624D01*
X173006054Y-78403900D01*
X172913224Y-78179788D01*
X172791936Y-77969711D01*
X172644265Y-77777262D01*
X172644260Y-77777256D01*
X172472743Y-77605739D01*
X172472736Y-77605733D01*
X172387921Y-77540652D01*
X172280293Y-77458067D01*
X172280292Y-77458066D01*
X172280289Y-77458064D01*
X172070212Y-77336776D01*
X172065355Y-77334764D01*
X171846104Y-77243947D01*
X171611785Y-77181161D01*
X171371289Y-77149500D01*
X171371288Y-77149500D01*
X171128712Y-77149500D01*
X171128711Y-77149500D01*
X170888214Y-77181161D01*
X170653895Y-77243947D01*
X170429794Y-77336773D01*
X170429785Y-77336777D01*
X170219706Y-77458067D01*
X170027263Y-77605733D01*
X170027256Y-77605739D01*
X169855739Y-77777256D01*
X169855733Y-77777263D01*
X169708067Y-77969706D01*
X169586777Y-78179785D01*
X169586773Y-78179794D01*
X169493947Y-78403895D01*
X169431161Y-78638214D01*
X169399500Y-78878711D01*
X168256856Y-78878711D01*
X168266592Y-78692951D01*
X168267949Y-78680046D01*
X168292213Y-78526846D01*
X168315029Y-78382786D01*
X168317723Y-78370107D01*
X168395627Y-78079368D01*
X168399636Y-78067033D01*
X168409294Y-78041874D01*
X168507493Y-77786054D01*
X168512763Y-77774215D01*
X168649415Y-77506023D01*
X168655891Y-77494808D01*
X168819819Y-77242380D01*
X168827434Y-77231899D01*
X169016858Y-76997979D01*
X169025525Y-76988354D01*
X169238354Y-76775525D01*
X169247979Y-76766858D01*
X169481899Y-76577434D01*
X169492380Y-76569819D01*
X169744808Y-76405891D01*
X169756023Y-76399415D01*
X170024215Y-76262763D01*
X170036054Y-76257493D01*
X170317040Y-76149633D01*
X170329368Y-76145627D01*
X170620107Y-76067723D01*
X170632786Y-76065029D01*
X170930046Y-76017949D01*
X170942951Y-76016592D01*
X171246756Y-76000669D01*
X171253246Y-76000500D01*
X213126000Y-76000500D01*
X213193039Y-76020185D01*
G37*
%TD.AperFunction*%
%TD*%
M02*
